<?xml version="1.0" standalone="no"?>
<!DOCTYPE svg PUBLIC "-//W3C//DTD SVG 20010904//EN"
 "http://www.w3.org/TR/2001/REC-SVG-20010904/DTD/svg10.dtd">
<svg version="1.0" xmlns="http://www.w3.org/2000/svg"
 width="900.000000pt" height="900.000000pt" viewBox="0 0 900.000000 900.000000"
 preserveAspectRatio="xMidYMid meet">

<g transform="translate(0.000000,900.000000) scale(0.100000,-0.100000)"
fill="#000000" stroke="none">
<path d="M4195 8989 c-271 -18 -520 -58 -804 -129 -1074 -269 -2021 -941
-2639 -1872 -413 -620 -654 -1304 -734 -2078 -16 -159 -16 -667 0 -820 64
-599 207 -1101 454 -1594 224 -447 494 -823 848 -1176 704 -705 1613 -1153
2590 -1280 995 -128 1978 66 2840 563 577 332 1110 829 1478 1378 393 585 641
1239 731 1924 104 794 -4 1611 -309 2337 -342 813 -925 1516 -1662 2006 -580
386 -1242 632 -1928 716 -278 34 -592 43 -865 25z m695 -729 c611 -62 1214
-282 1730 -631 256 -173 576 -461 771 -694 525 -627 827 -1384 880 -2205 25
-385 -9 -751 -106 -1146 -164 -668 -499 -1259 -995 -1754 -347 -348 -718 -601
-1171 -800 -73 -33 -360 -140 -373 -140 -3 0 -6 197 -8 438 -4 437 -4 437 -31
537 -48 181 -149 342 -273 438 l-54 42 133 17 c463 60 894 208 1157 395 120
87 286 253 373 373 168 236 290 579 332 933 35 302 29 605 -16 816 -55 254
-181 510 -348 706 -28 32 -51 62 -51 66 0 3 7 26 16 50 54 154 81 380 65 559
-13 149 -33 245 -85 405 l-42 130 -65 8 c-114 14 -210 -5 -419 -80 -181 -65
-371 -162 -590 -299 l-115 -72 -120 29 c-316 76 -604 109 -964 109 -390 0
-702 -38 -1008 -121 l-73 -20 -42 29 c-268 184 -636 359 -847 402 -102 21
-286 29 -302 13 -16 -16 -80 -227 -106 -352 -22 -106 -26 -153 -27 -291 0
-178 13 -273 60 -422 28 -88 31 -76 -38 -156 -163 -190 -285 -449 -346 -731
-25 -119 -26 -141 -26 -391 0 -198 5 -295 18 -385 23 -162 77 -400 116 -510
124 -352 342 -634 643 -833 258 -169 666 -303 1093 -358 74 -10 134 -20 133
-23 0 -3 -22 -23 -49 -43 -77 -58 -149 -153 -200 -263 -89 -189 -100 -274
-100 -785 0 -225 -4 -370 -9 -370 -6 0 -79 24 -163 54 -1304 458 -2250 1585
-2478 2952 -60 360 -64 801 -10 1161 88 589 319 1167 657 1641 161 226 442
531 648 703 613 513 1360 817 2160 879 134 10 521 5 665 -10z"/>
</g>
</svg>
