<?xml version="1.0" standalone="no"?>
<!DOCTYPE svg PUBLIC "-//W3C//DTD SVG 20010904//EN"
 "http://www.w3.org/TR/2001/REC-SVG-20010904/DTD/svg10.dtd">
<svg version="1.0" xmlns="http://www.w3.org/2000/svg"
 width="920.000000pt" height="913.000000pt" viewBox="0 0 920.000000 913.000000"
 preserveAspectRatio="xMidYMid meet">

<g transform="translate(0.000000,913.000000) scale(0.100000,-0.100000)"
fill="#000000" stroke="none">
<path d="M4315 8999 c-391 -28 -767 -102 -1120 -221 -703 -237 -1319 -631
-1818 -1166 -671 -717 -1061 -1571 -1174 -2567 -24 -209 -23 -701 1 -910 53
-465 149 -840 318 -1245 536 -1283 1650 -2239 3004 -2578 184 -47 400 -85 616
-109 190 -21 674 -24 858 -5 888 91 1670 407 2350 947 714 567 1239 1355 1490
2232 124 437 171 799 165 1273 -6 482 -68 867 -210 1310 -207 645 -587 1263
-1080 1755 -598 598 -1362 1015 -2180 1190 -178 38 -384 70 -550 85 -160 15
-520 20 -670 9z m716 -294 c1083 -121 2049 -637 2744 -1469 450 -539 770
-1224 890 -1905 49 -280 60 -415 59 -741 0 -316 -8 -424 -55 -710 -67 -410
-233 -885 -442 -1264 -199 -361 -392 -620 -687 -919 -807 -823 -1899 -1265
-3050 -1234 -695 19 -1333 196 -1942 539 -472 265 -930 669 -1262 1113 -409
547 -675 1176 -775 1835 -33 218 -41 313 -48 540 -23 837 207 1651 663 2353
365 559 859 1023 1444 1355 115 65 374 190 480 232 430 169 873 266 1345 294
117 7 504 -5 636 -19z"/>
<path d="M3830 6214 c-163 -14 -316 -52 -396 -99 -53 -31 -124 -111 -124 -139
0 -18 9 -23 62 -33 87 -17 179 -65 227 -119 77 -88 106 -210 122 -519 26 -481
-25 -854 -127 -934 -86 -67 -202 -15 -345 155 -116 139 -244 332 -402 604 -82
141 -239 461 -318 645 -75 175 -111 220 -202 254 -56 20 -72 21 -544 21 -510
0 -579 -5 -649 -43 -84 -48 -82 -101 14 -317 302 -682 762 -1502 1124 -2003
531 -736 1043 -1103 1731 -1243 123 -25 154 -27 448 -32 268 -3 325 -2 371 12
132 38 167 94 179 286 11 163 23 240 54 338 47 148 138 242 235 242 107 0 219
-88 453 -354 268 -305 414 -431 567 -491 128 -50 142 -51 850 -40 184 3 351 8
370 11 111 16 213 73 246 136 75 146 -126 454 -593 908 -76 74 -198 192 -270
263 -310 299 -305 348 75 844 349 457 466 618 584 808 194 311 262 522 193
604 -15 17 -48 37 -78 48 -49 17 -94 18 -692 15 -380 -2 -653 -7 -672 -13 -47
-15 -95 -75 -132 -165 -168 -410 -324 -708 -534 -1024 -218 -328 -379 -490
-487 -490 -44 0 -114 67 -138 133 -42 111 -45 177 -36 607 14 634 12 824 -8
891 -39 124 -103 171 -288 210 -96 21 -135 23 -465 24 -198 2 -380 1 -405 -1z"/>
</g>
</svg>
